<svg xmlns="http://www.w3.org/2000/svg" xmlns:xlink="http://www.w3.org/1999/xlink" viewBox="0 0 573.15 96.01"><defs><style>.cls-1{fill:#fff;}.cls-2{fill:none;}.cls-3{fill:url(#Namnlös_övertoning_63);}.cls-4{fill:url(#Namnlös_övertoning_63-2);}.cls-5{fill:url(#Namnlös_övertoning_63-3);}</style><linearGradient id="Namnlös_övertoning_63" x1="6.16" y1="-0.28" x2="77.27" y2="81.77" gradientUnits="userSpaceOnUse"><stop offset="0" stop-color="#009fae"/><stop offset="0.63" stop-color="#1ed760"/><stop offset="1" stop-color="#29d3a0"/></linearGradient><linearGradient id="Namnlös_övertoning_63-2" x1="6.16" y1="-0.28" x2="77.27" y2="81.77" xlink:href="#Namnlös_övertoning_63"/><linearGradient id="Namnlös_övertoning_63-3" x1="6.13" y1="-0.26" x2="77.24" y2="81.79" xlink:href="#Namnlös_övertoning_63"/></defs><title>spotify-rooms</title><g id="Lager_2" data-name="Lager 2"><path class="cls-1" d="M126.08,56c.45,3.75,3.3,6.75,8.4,6.75,4,0,6.15-2.25,6.15-4.8,0-2.25-1.65-4-4.65-4.65l-6.15-1.35c-5.62-1.2-9-5-9-10.13,0-6.15,5.78-11.4,12.83-11.4,9.9,0,13,6.45,13.72,9.68l-6.22,2.32c-.3-1.87-1.8-6-7.5-6-3.6,0-6,2.33-6,4.8,0,2.18,1.35,3.75,4.12,4.35l5.85,1.28c6.53,1.42,10,5.4,10,10.72,0,5.1-4.28,11.18-13.2,11.18-9.9,0-14.1-6.38-14.7-10.5Z"/><path class="cls-1" d="M157,81.84V31.52h6.83v5.62c1.95-3.6,6.22-6.45,12.07-6.45,10.8,0,16.57,8.33,16.57,18.83,0,10.72-6.22,19-16.79,19-5.55,0-9.75-2.63-11.7-5.85V81.84Zm17.63-44.92c-6.45,0-10.73,5.4-10.73,12.6,0,7.42,4.28,12.75,10.73,12.75s10.65-5.33,10.65-12.75C185.26,42.32,181.21,36.92,174.61,36.92Z"/><path class="cls-1" d="M235.35,49.52c0,11-7.65,19.2-18.45,19.2s-18.44-8.18-18.44-19.2,7.65-19.13,18.44-19.13S235.35,38.57,235.35,49.52Zm-7.2,0c0-8.33-5.25-12.83-11.25-12.83s-11.24,4.5-11.24,12.83,5.24,12.9,11.24,12.9S228.15,57.92,228.15,49.52Z"/><path class="cls-1" d="M253.43,31.52h7.8v6.37h-7.8V56.64c0,3.3,1.35,5,5,5a14.21,14.21,0,0,0,2.77-.3v6a15.22,15.22,0,0,1-4.8.68c-6.15,0-10.05-3.75-10.05-10.28V37.89h-6.9V31.52h2c3.9,0,5.55-2.4,5.55-5.55V20.12h6.45Z"/><path class="cls-1" d="M274.06,12.77a5.06,5.06,0,1,1-5,5.1A5.06,5.06,0,0,1,274.06,12.77Zm-3.45,54.82V31.52h7V67.59Z"/><path class="cls-1" d="M299,37.89v29.7h-7.28V37.89h-6.67V31.52h6.67V25.44c0-8,5.33-12.37,11.85-12.37a9,9,0,0,1,4.2.75v6.3a8.08,8.08,0,0,0-3.07-.45c-2.48,0-5.7,1.2-5.7,6.15v5.7h8.7v6.37Z"/><path class="cls-1" d="M317.7,82.66l9-19-15.52-32.1h8.1l11.25,24.9,10.8-24.9h7.57L325.43,82.66Z"/><path class="cls-1" d="M340.88,49.14V43h37.25v6.15Z"/><path class="cls-1" d="M391.42,38.64a22,22,0,0,0-3.07-.22c-5.93,0-9.9,3.15-9.9,11.1V67.59H371.4V31.52h6.9v6.3a11.29,11.29,0,0,1,10.8-6.9,13.84,13.84,0,0,1,2.32.22Z"/><path class="cls-1" d="M432.45,49.52c0,11-7.65,19.2-18.45,19.2s-18.45-8.18-18.45-19.2S403.2,30.39,414,30.39,432.45,38.57,432.45,49.52Zm-7.2,0c0-8.33-5.25-12.83-11.25-12.83s-11.25,4.5-11.25,12.83S408,62.42,414,62.42,425.25,57.92,425.25,49.52Z"/><path class="cls-1" d="M475.35,49.52c0,11-7.65,19.2-18.45,19.2s-18.45-8.18-18.45-19.2,7.65-19.13,18.45-19.13S475.35,38.57,475.35,49.52Zm-7.2,0c0-8.33-5.25-12.83-11.25-12.83s-11.25,4.5-11.25,12.83,5.25,12.9,11.25,12.9S468.15,57.92,468.15,49.52Z"/><path class="cls-1" d="M484.35,67.59V31.52h6.75v4.8c2.25-4,6.75-5.85,10.95-5.85,4.5,0,8.85,2.17,10.8,6.82,2.85-5.17,7.5-6.82,12.07-6.82,6.3,0,12.45,4.27,12.45,13.72v23.4h-7V44.94c0-4.72-2.33-8.25-7.65-8.25-5,0-8.33,3.9-8.33,9.08V67.59h-7V44.94c0-4.65-2.25-8.25-7.65-8.25-5,0-8.4,3.75-8.4,9.15V67.59Z"/><path class="cls-1" d="M551.62,56c.45,3.75,3.3,6.75,8.4,6.75,4,0,6.15-2.25,6.15-4.8,0-2.25-1.65-4-4.65-4.65l-6.15-1.35c-5.62-1.2-9-5-9-10.13,0-6.15,5.78-11.4,12.83-11.4,9.9,0,13,6.45,13.72,9.68l-6.22,2.32c-.3-1.87-1.8-6-7.5-6-3.6,0-6,2.33-6,4.8,0,2.18,1.35,3.75,4.12,4.35l5.85,1.28c6.53,1.42,10,5.4,10,10.72,0,5.1-4.28,11.18-13.2,11.18-9.9,0-14.1-6.38-14.7-10.5Z"/><path class="cls-2" d="M48,6.32A41.69,41.69,0,1,0,89.69,48,41.73,41.73,0,0,0,48,6.32Zm0,75.51A33.83,33.83,0,1,1,81.83,48,33.82,33.82,0,0,1,48,81.83Z"/><path class="cls-2" d="M48,20.5A27.51,27.51,0,1,0,75.51,48,27.54,27.54,0,0,0,48,20.5Zm0,47.26A19.67,19.67,0,1,1,67.7,48.09,19.67,19.67,0,0,1,48,67.76Z"/><path class="cls-3" d="M48,0A48,48,0,1,0,96,48,48,48,0,0,0,48,0Zm0,89.69A41.69,41.69,0,1,1,89.69,48,41.73,41.73,0,0,1,48,89.69Z"/><path class="cls-4" d="M48,14.18A33.83,33.83,0,1,0,81.83,48,33.82,33.82,0,0,0,48,14.18Zm0,61.33A27.51,27.51,0,1,1,75.51,48,27.54,27.54,0,0,1,48,75.51Z"/><path class="cls-5" d="M48,28.43A19.67,19.67,0,1,0,67.7,48.09,19.67,19.67,0,0,0,48,28.43Zm0,23.74A4.17,4.17,0,1,1,52.17,48,4.17,4.17,0,0,1,48,52.17Z"/></g></svg>